<?xml version="1.0" encoding="utf-8"?>
<!-- Generator: Adobe Illustrator 24.3.0, SVG Export Plug-In . SVG Version: 6.00 Build 0)  -->
<svg version="1.1" id="Layer_1" xmlns="http://www.w3.org/2000/svg" xmlns:xlink="http://www.w3.org/1999/xlink" x="0px" y="0px"
	 viewBox="0 0 512 512" style="enable-background:new 0 0 512 512;" xml:space="preserve">
<style type="text/css">
	.st0{fill:#00205B;}
</style>
<g id="XMLID_1_">
	<path id="XMLID_5_" class="st0" d="M34.77,195.8c1.96,0.42,1.68,1.82,1.68,1.82s-0.14,51.06,0,58.22
		c-0.98,6.73-11.78,6.17-11.78,6.17V195.8C24.67,195.8,31.26,195.8,34.77,195.8z M26.07,192.43H2.5c0,0-2.24,0.42-1.96,1.68
		s1.26,1.68,3.65,1.68v65.23l-0.98,0.98c0,0-2.53,0-3.09,1.4c-0.56,1.4,1.26,1.82,2.81,1.82c1.26,0,33.53,0,33.53,0
		s20.34-0.84,20.34-14.31c0-13.47,0-45.59,0-45.59s-2.81-12.77-16.13-13.19C27.05,192.43,26.07,192.43,26.07,192.43z"/>
	<path id="XMLID_6_" class="st0" d="M69.98,232.55c3.09,0,5.47-2.24,5.47-5.19c0-2.95-2.53-5.19-5.47-5.19
		c-3.09,0-5.47,2.24-5.47,5.19S66.89,232.55,69.98,232.55z"/>
	<path id="XMLID_7_" class="st0" d="M147.13,232.55c3.09,0,5.47-2.24,5.47-5.19c0-2.95-2.53-5.19-5.47-5.19
		c-3.09,0-5.47,2.24-5.47,5.19C141.8,230.31,144.19,232.55,147.13,232.55z"/>
	<path id="XMLID_10_" class="st0" d="M122.02,192.71c3.79,0,10.52,6.31,11.08,11.36c0.42,3.37,0.56,7.58,0.56,10.38
		c0,10.94-10.24,13.61-10.24,13.61c1.68,0.56,5.61,0.7,9.12,2.95c3.51,1.96,4.35,6.73,4.35,6.73v23.57l0.98,0.84c0,0,3.09,0,3.51,0
		c0.56,0,0.84-0.14,0.98,1.26c0.14,1.96-1.68,1.82-1.68,1.82s-19.08,0-21.32,0c-2.24,0-4.07-4.07-4.07-4.07s0-25.67,0-27.78
		s-4.21-2.38-4.21-2.38h-6.87v30.02l0.56,0.7c0,0,2.1,0,2.67,0c0.42,0,1.26-0.42,1.26,1.4c0.14,2.1-0.84,1.54-0.84,1.54
		s-26.51,0-27.36,0c-0.7,0-1.26-0.14-1.26-1.26c0-0.98,1.26-1.68,1.26-1.68h1.82l1.4-1.4V196.5l-0.98-0.84c0,0-0.56,0-2.1,0
		s-0.84-0.56-0.84-1.96c-0.14-1.26,1.26-0.98,1.26-0.98L122.02,192.71L122.02,192.71z M108.98,195.8h-4.77v31.42h8.84
		c0,0,2.1-0.14,2.1-2.95s0-26.51,0-26.51s-0.56-2.1-2.95-2.1C110.1,195.8,108.98,195.8,108.98,195.8z"/>
	<path id="XMLID_13_" class="st0" d="M324.87,192.71c3.79,0,10.52,6.31,11.08,11.36c0.42,3.37,0.56,7.58,0.56,10.38
		c0,10.94-10.1,13.61-10.1,13.61c1.68,0.56,5.61,0.7,9.12,2.95c3.51,1.96,4.35,6.73,4.35,6.73v23.57l0.98,0.84c0,0,3.09,0,3.51,0
		c0.56,0,0.84-0.14,0.98,1.26c0.14,1.96-1.68,1.82-1.68,1.82s-19.08,0-21.18,0c-2.24,0-4.07-4.07-4.07-4.07s0-25.67,0-27.78
		s-4.35-2.38-4.35-2.38h-6.87v30.02l0.56,0.7c0,0,2.1,0,2.67,0c0.42,0,1.26-0.42,1.26,1.4c0.14,2.1-0.84,1.54-0.84,1.54
		s-26.37,0-27.36,0c-0.7,0-1.26-0.14-1.26-1.26c0-0.98,1.26-1.68,1.26-1.68h1.82l1.4-1.4V196.5l-0.98-0.84c0,0-0.56,0-2.1,0
		c-1.54,0-0.84-0.56-0.98-1.96c-0.14-1.26,1.26-0.98,1.26-0.98L324.87,192.71L324.87,192.71z M311.83,195.8h-4.77v31.42h8.84
		c0,0,2.1-0.14,2.1-2.95s0-26.51,0-26.51s-0.56-2.1-2.95-2.1C312.81,195.8,311.83,195.8,311.83,195.8z"/>
	<path id="XMLID_14_" class="st0" d="M188.52,231.43h4.63l0.98,0.84c0,0-0.14,30.72,0,31.84c0.14,1.12,0.98,1.26,0.98,1.26
		s21.04,0,22.45,0c1.26,0,1.82-0.84,1.82-1.26s-0.14-1.96-2.38-1.96c-2.24,0-1.96-1.54-1.96-1.54s-0.14-62.85,0-63.83
		c0.14-0.98,0-1.12,1.82-1.12c1.82,0,2.1-0.42,2.1-1.4c0-0.98-1.4-1.68-1.4-1.68s-21.88,0-22.73,0s-0.84,1.26-0.84,1.26v30.58
		l-0.98,0.98h-4.63h-5.75l-0.98-0.98v-30.58c0,0-0.14-1.26-0.84-1.26c-0.7,0-22.73,0-22.73,0s-1.4,0.7-1.4,1.68
		c0,0.98,0.28,1.4,2.1,1.4s1.68,0.14,1.82,1.12c0.14,0.98,0,63.83,0,63.83s0.14,1.54-1.96,1.54s-2.38,1.54-2.38,1.96
		s0.56,1.26,1.82,1.26c1.26,0,22.45,0,22.45,0s0.84-0.14,0.98-1.26c0.14-1.12,0-31.84,0-31.84l0.98-0.84L188.52,231.43"/>
	<path id="XMLID_17_" class="st0" d="M250.8,265.8c-12.77,0-16.41-1.82-20.9-6.03c-4.35-4.21-5.05-12.2-5.33-15.71
		c-0.28-3.37-0.28-5.61-0.28-17.54c0-9.4,0.7-14.17,2.24-20.62c1.96-8.56,5.61-10.1,10.1-12.06c4.35-1.96,14.59-2.1,14.59-2.1
		l1.4-0.14c0,0,9.26,0.28,13.61,2.24c4.49,1.96,8.14,3.79,10.1,12.06c1.54,6.45,2.24,11.22,2.24,20.62c0,11.78,0,14.03-0.28,17.54
		c-0.28,3.37-0.84,11.36-5.33,15.71c-4.35,4.21-7.86,6.03-20.48,6.03H250.8z M251.65,263.7c7.72,0,6.45-4.07,6.45-4.07
		s0-58.64,0-60.18c0-5.47-4.49-5.75-6.17-5.75h-0.98c-1.54,0-6.59,0.28-6.59,5.75c0,1.54,0,60.18,0,60.18s-1.26,4.07,6.31,4.07
		H251.65z"/>
	<path id="XMLID_20_" class="st0" d="M412.27,265.8c-12.77,0-16.41-1.82-20.9-6.03c-4.35-4.21-5.05-12.2-5.33-15.71
		c-0.28-3.37-0.28-5.61-0.28-17.54c0-9.4,0.7-14.17,2.24-20.62c1.96-8.56,5.61-10.1,10.1-12.06c4.35-1.96,14.59-2.1,14.59-2.1
		l1.4-0.14c0,0,9.26,0.28,13.61,2.24c4.49,1.96,8.14,3.79,10.1,12.06c1.54,6.45,2.24,11.22,2.24,20.62c0,11.78,0,14.03-0.28,17.54
		c-0.28,3.37-0.98,11.36-5.33,15.71c-4.35,4.21-7.86,6.03-20.62,6.03H412.27z M413.25,263.7c7.58,0,6.45-4.07,6.45-4.07
		s0-58.64,0-60.18c0-5.47-4.63-5.75-6.17-5.75h-0.98c-1.54,0-6.59,0.28-6.59,5.75c0,1.54,0,60.18,0,60.18s-1.26,4.07,6.31,4.07
		H413.25z"/>
	<path id="XMLID_21_" class="st0" d="M363.45,192.57h24.97c0,0,0.98,0.84,0.98,1.54s0,7.72,0,7.72s-0.14,1.68-1.54,1.68
		c-1.4,0.14-1.68-0.56-1.68-1.96c-0.14-1.54,0-2.24,0-2.24h-11.78c0,0-1.4-0.14-1.4,1.12s0,60.32,0,60.32s-0.14,1.4,2.53,1.4
		c1.4,0,1.4,0.56,1.4,1.54s-0.42,1.54-1.54,1.54c-1.12,0-11.64,0-11.64,0s-12.91,0-14.03,0s-1.54-0.56-1.54-1.54
		s-0.14-1.54,1.26-1.54c2.67,0,2.38-1.4,2.38-1.4s0-59.2,0-60.32c0-1.26-1.4-1.12-1.4-1.12h-11.78c0,0,0.14,0.84,0,2.24
		c-0.14,1.54-0.42,2.24-1.68,1.96c-1.4-0.14-1.54-1.68-1.54-1.68s0-7.01,0-7.72s0.98-1.54,0.98-1.54L363.45,192.57L363.45,192.57z"
		/>
	<path id="XMLID_22_" class="st0" d="M475.68,265.52h16.41v-68.88c0,0-0.42-0.98,1.68-0.98c2.1,0,2.1-1.26,2.1-1.82
		c0-0.56-0.84-1.4-1.82-1.4c-1.12,0-9.4,0-9.4,0s-1.4,0-1.4,1.54c0,1.26,0.42,1.82,1.12,1.82s1.96-0.14,2.1,0.98
		c0.14,1.54,0,42.09,0,42.09l-17.54-42.51c0,0,0.42-0.7,1.68-0.7c1.26,0,1.96-0.7,1.96-1.82c0-1.12-0.7-1.4-1.26-1.4
		s-26.51,0-26.51,0s-1.4,0.56-1.4,1.54c0,0.98,0,1.54,1.12,1.54s2.53,0.28,2.53,0.84c0,0.56,0,64.81,0,64.81s0.42,0.98-1.68,0.98
		c-2.1,0-2.1,1.26-2.1,1.82s0.84,1.4,1.82,1.4c1.12,0,9.4,0,9.4,0s1.4,0,1.4-1.54c0-1.26-0.42-1.82-1.12-1.82s-1.96,0.14-2.1-0.98
		c-0.14-1.4,0-53.17,0-53.17L475.68,265.52z"/>
	<path id="XMLID_27_" class="st0" d="M506.54,204.5c-2.95,0-5.47-1.96-5.47-5.47s2.67-5.47,5.47-5.47c2.81,0,5.47,1.96,5.47,5.47
		C512.01,202.39,509.35,204.5,506.54,204.5z M506.54,194.68c-2.1,0-3.93,1.68-3.93,4.21c0,2.67,1.68,4.21,3.93,4.21
		s3.93-1.68,3.93-4.21S508.65,194.68,506.54,194.68z M505.56,201.83h-1.26v-5.89h2.1c1.54,0,2.53,0.42,2.53,1.68
		c0,1.12-0.56,1.4-1.4,1.54l1.4,2.67h-1.4l-1.26-2.53h-0.56v2.53H505.56z M506.68,198.32c0.56,0,0.84-0.14,0.84-0.7
		s-0.7-0.7-1.12-0.7h-0.84v1.4H506.68z"/>
	<rect id="XMLID_28_" x="0.12" y="170.55" class="st0" width="497.59" height="5.05"/>
	<path id="XMLID_31_" class="st0" d="M68.29,323.18c-0.28,0-0.42,0.28-0.56,0.7c-0.42,1.12-1.12,2.24-2.1,3.65
		c-0.98,1.12-1.96,2.24-3.23,3.37c-1.12,0.98-2.24,1.68-3.51,2.24c-0.28-1.68-0.42-3.51-0.42-5.33c0.14-4.49,0.56-9.4,1.26-14.73
		l0.14-1.4v-0.28l4.07-0.42l4.21-0.42h0.7c0.98-0.14,1.4-0.42,1.12-0.98c-0.14-0.42-0.7-0.7-1.4-0.84c-0.98-0.14-3.65-0.14-7.86,0
		H60.3l0.14-0.28l0.84-5.19c0.42-2.67,1.12-5.75,1.96-9.82c0.28-1.26,0.28-2.24,0-3.09c-0.42-0.98-1.12-1.82-2.24-2.81
		c-1.12-0.84-1.96-1.26-2.95-1.26c-0.42,0-0.84,0.28-1.54,0.7l-0.7,0.56c-0.84,0.7-2.1,1.54-3.65,2.95
		c-1.54,1.26-3.37,2.81-5.19,4.49l-7.72,6.59l-8.7,7.86c-0.14,0-0.28,0.14-0.56,0.42h-0.42c-1.96,0.14-4.35,0.28-6.45,0.28
		s-3.79,0-4.63,0c-0.84-0.14-1.68,0-2.81-0.42c0.7,1.26,1.26,2.24,1.68,3.09c0.42,0.7,0.84,0.98,1.26,1.4s0.98,0.7,1.68,0.98
		c0.56,0.28,1.26,0.28,1.82,0.28c0.28,0,0.7,0,1.54-0.14l1.4-0.14h0.28l-0.14,0.14c-0.98,1.12-2.1,2.24-3.37,3.37
		c-0.42,0.42-0.98,0.98-1.82,1.68c-0.7,0.7-1.82,1.68-3.09,3.09c-0.84,0.84-1.68,1.68-2.53,2.24c-0.7,0.7-1.26,1.12-1.54,1.54
		c-7.72,7.15-10.38,5.61-12.2,8.56c-0.56,0.98,0.56,3.09,1.96,4.21s3.93,1.54,5.05,1.54c0.84,0,1.68-0.28,2.81-0.84
		c0.7-0.56,1.82-1.54,3.23-3.09c1.54-1.68,11.22-13.19,7.72-8.98c-0.98,1.26,1.12-0.98,5.89-7.15l3.09-3.79l3.09-3.79l5.47-0.56
		l5.47-0.56l3.93-0.42l3.93-0.42l-0.7,4.77l-0.7,4.77c-0.7,4.63-0.84,8-0.42,10.24c0.14,0.84,0.28,1.54,0.56,1.96
		c0.42,0.98,1.12,1.96,1.96,3.09c0.98,1.12,1.96,1.96,3.09,2.81c1.12,0.7,1.96,0.98,2.81,0.98s1.26-0.42,1.96-0.98
		c3.65-4.07,6.17-8.7,7.86-14.03c0.14-0.7,0.28-1.12,0.14-1.4C69,323.32,68.72,323.18,68.29,323.18z M56.37,295.26
		c-0.42,1.82-0.84,3.79-1.26,5.75l-0.7,3.79l-0.84,3.65l-5.19,0.14l-5.19,0.14l-3.23,0.14l-3.23,0.14l0.14-0.28
		c3.23-3.79,7.58-8,12.91-12.91c1.4-1.26,2.81-2.38,3.93-3.37c1.12-0.84,2.67-1.68,4.21-2.81
		C57.21,291.61,56.79,293.44,56.37,295.26z"/>
	<path id="XMLID_34_" class="st0" d="M166.49,316.02c0.28-0.84,0.98-1.82,2.1-3.51l1.68-2.1c0.42-0.7,0.56-1.26,0.42-1.82
		c-0.28-0.7-0.7-1.26-1.4-1.82c-0.7-0.42-1.4-0.7-1.96-0.7c-0.7,0-1.54,0.28-2.38,0.84c-0.84,0.56-2.53,1.82-4.49,3.79l-4.63,4.07
		c-0.7,0.56-1.4,1.26-2.24,2.1c-0.84,0.84-1.96,1.96-3.37,3.37c0.84-2.1,1.82-3.93,2.95-5.19l2.95-4.07c0.56-0.7,0.56-1.4,0.28-2.1
		s-0.7-1.4-1.4-1.82c-0.56-0.42-1.26-0.7-1.96-0.7c-0.42,0-0.7,0-0.84,0.14s-0.42,0.42-0.84,1.12l-0.56,1.12
		c-1.12,1.68-3.37,4.63-8.28,8.42c-1.26,0.98-7.15,5.61-10.24,6.87c-3.93,1.54-5.89,1.54-8.28,1.26c-0.84-0.14-1.96-0.84-2.53-1.4
		c-0.56-0.7-0.7-1.26-0.28-2.53c0.42-1.12,1.12-2.81,1.68-2.67c1.68,0.56,3.37,1.4,6.31,1.54c2.81,0.14,3.93-0.42,5.33-1.26
		c1.4-0.7,3.09-1.96,4.21-3.65c1.26-1.82,1.96-3.51,1.54-5.19c-0.14-0.56-0.42-1.26-0.98-1.82c-0.7-0.56-1.4-1.12-2.24-1.4
		c-0.98-0.28-1.96-0.28-2.67-0.28c-1.26,0-2.67,0.14-4.91,1.12c-2.24,0.98-4.35,2.1-6.17,3.65c-2.24,1.68-4.07,3.65-5.19,5.61
		c-0.42,0-0.98,0.14-1.54,0.28c-3.51,0.56-6.31,1.68-8.84,3.51c1.26-3.51,3.09-6.73,5.47-10.24c0.42-0.56,0.42-1.12,0.14-1.68
		c-0.28-0.7-0.7-1.26-1.4-1.82c-0.56-0.42-1.26-0.7-1.96-0.7c-0.42,0-0.98,0.28-1.68,0.7c-1.12,0.84-3.09,2.24-5.47,4.49l-4.77,4.07
		c-1.68,1.54-3.37,3.23-4.77,4.77c0.28-0.7,0.7-1.68,1.12-2.81c0.28-0.7,0.56-1.26,0.84-1.68c0.28-0.42,0.56-0.98,0.84-1.4
		c0.28-0.56,1.12-1.82,2.24-3.79c0.56-0.84,0.7-1.54,0.56-2.1c-0.28-0.56-0.7-1.12-1.26-1.54c-0.7-0.42-1.26-0.7-1.96-0.7
		c-0.56,0-1.26,0.28-2.1,0.84c-1.82,1.26-4.49,3.51-7.86,6.31c-2.67,2.1-5.19,4.63-7.72,7.15c1.12-2.53,2.1-4.21,3.23-5.89l0.7-1.4
		c0.7-1.54,0.56-1.82,0.98-3.37c0.14-0.28,0.42-1.68,0.14-2.95c-0.14-0.56-0.42-1.12-0.98-1.68c-0.28-0.14-0.56-0.42-1.12-0.56
		c-0.42-0.14-1.4-0.42-1.54,0.28c-0.14,0.42,3.09,0.42,0.56,4.07l-3.51,4.35c-1.82,2.53-3.51,5.19-4.91,8.42
		c-1.12,2.67-1.4,4.49-0.98,5.47c0.28,0.56,0.84,1.26,1.54,1.82c0.84,0.56,1.54,0.84,2.1,0.84c0.42,0,0.7,0,0.84-0.14
		s0.42-0.56,0.7-1.12c1.54-3.23,3.51-6.03,5.61-8.7c2.1-2.38,4.49-4.35,6.59-5.33c0.56-0.28,0.84-0.28,0.98-0.28
		c0.14,0,0.28,0,0.42,0.14c0,0.14,0,0.28-0.14,0.56l-0.28,0.42l-0.28,0.42c-2.1,4.07-3.37,7.44-3.65,9.82c0,0.56,0,0.98,0.14,1.26
		c0.28,0.56,0.84,1.26,1.82,1.96c0.84,0.56,1.4,0.84,2.1,0.84c0.42,0,0.84-0.28,1.12-0.84c0.98-2.95,2.81-5.61,5.33-8.7
		c2.67-2.95,4.91-4.91,7.01-5.75c0.7-0.28,0.98-0.42,1.26-0.42s0.42,0.14,0.42,0.28s0,0.28-0.14,0.42l-0.28,0.42
		c-0.56,0.98-1.26,2.38-1.96,4.35c-0.7,1.82-1.26,3.37-1.4,4.35c-0.28,1.26-0.28,2.24,0,3.09c0.28,0.56,0.84,1.26,1.68,1.82
		c0.84,0.56,1.68,0.84,2.53,0.84c0.28,0,0.56,0,0.7-0.14c0.14-0.14,0.28-0.42,0.42-0.7c0-0.14,0.14-0.28,0.28-0.56
		c0.14-0.28,0.28-0.56,0.42-0.98c1.12-2.67,2.24-4.35,3.65-5.47c1.12-0.98,2.67-1.82,4.21-2.53c0.7-0.28,1.54-0.56,2.24-0.7
		c-0.84,2.1-1.12,4.35-0.42,5.75c0.56,1.26,1.4,3.09,3.93,4.21c1.68,0.7,5.05,0.7,7.86,0.14c4.07-0.84,6.31-2.95,8.14-4.35
		c1.82-1.4,5.47-4.77,6.73-5.89c1.12-0.84,2.81-2.81,4.49-4.07c-1.96,3.37-3.65,6.59-5.05,10.24c-0.28,0.84-0.42,1.54-0.14,2.1
		s0.84,1.12,1.68,1.82c0.84,0.7,1.68,0.98,2.24,0.98c0.56,0,1.12-0.56,1.82-1.82c1.96-4.07,4.49-7.44,7.15-9.96
		c1.82-1.68,4.21-3.23,6.87-4.35c-0.7,1.26-0.84,2.1-0.7,2.67c0.28,0.7,0.98,1.26,1.96,1.82c1.12,0.56,2.24,0.98,3.79,1.12
		c-0.28-0.28-0.42-0.7-0.56-0.98C166.21,317.7,166.21,316.86,166.49,316.02z M130.3,312.09c2.1-0.98,3.79-1.54,4.91-1.54
		c0.42,0,0.7,0.14,0.84,0.42c0.14,0.42,0,1.26-0.7,2.53c-0.7,1.12-1.82,3.51-4.77,4.49c-2.67,0.84-6.17,0.42-7.15-0.42
		C124.83,316.16,128.2,313.36,130.3,312.09z"/>
	<path id="XMLID_40_" class="st0" d="M496.16,308.17c-0.28-0.7-0.7-1.26-1.4-1.82c-0.7-0.42-1.4-0.7-1.96-0.7
		c-0.7,0-1.54,0.28-2.53,0.84c-0.84,0.56-2.53,1.82-4.49,3.79l-4.63,4.07c-0.7,0.56-1.4,1.26-2.24,2.1
		c-0.84,0.84-1.96,1.96-3.37,3.37c0.84-2.1,1.82-3.93,2.95-5.19l2.95-4.07c0.56-0.7,0.56-1.4,0.28-2.1c-0.28-0.7-0.84-1.4-1.4-1.82
		s-1.26-0.7-1.96-0.7c-0.42,0-0.7,0-0.84,0.14s-0.42,0.42-0.84,1.12l-0.56,1.12c-1.12,1.68-3.37,4.63-8.28,8.42
		c-1.26,0.98-7.15,5.61-10.24,6.87c-3.93,1.54-5.89,1.54-8.28,1.26c-0.84-0.14-1.96-0.84-2.53-1.4c-0.56-0.7-0.7-1.26-0.28-2.53
		c0.42-1.12,1.12-2.81,1.68-2.67c1.68,0.56,3.37,1.4,6.31,1.54c2.81,0.14,3.93-0.42,5.33-1.26c1.4-0.7,3.09-1.96,4.21-3.65
		c1.26-1.82,1.96-3.51,1.54-5.19c-0.14-0.56-0.42-1.26-0.98-1.82c-0.7-0.56-1.4-1.12-2.24-1.4c-0.98-0.28-1.96-0.28-2.67-0.28
		c-1.26,0-2.67,0.28-4.91,1.12c-2.24,0.98-4.35,2.1-6.17,3.65c-2.1,1.54-3.93,3.51-5.05,5.33c-0.42,0-0.98,0.14-1.68,0.28
		c-1.26,0.14-2.24,0.42-3.09,0.56c-2.24,0.56-4.63,1.54-7.01,2.95c0.42-1.4,0.98-2.67,1.4-3.65c0.56-0.98,1.26-2.24,2.24-3.79
		c2.67-3.93,8.56-8.84,11.08-11.5l5.61-6.31c0.7-0.7,1.54-1.82,1.12-2.67c-0.56-0.98-1.4-1.12-2.1-1.12c-0.56,0-1.68,0.84-2.53,1.54
		c-2.81,2.24-6.03,5.33-6.03,5.33c-2.24,2.24-9.12,8.42-10.52,10.38l-0.14,0.14c-0.42-0.84-1.12-1.54-1.96-1.96s-1.82-0.7-3.09-0.7
		c-0.7,0-1.54,0.14-2.67,0.42c-2.1,0.7-4.35,1.82-6.59,3.37c-1.68,0.98-3.37,2.1-4.91,3.51c-2.95,1.26-5.75,2.81-6.03,3.09
		c-1.96,0.98-5.75,2.95-8.28,4.07c0.7-2.24,1.96-4.77,3.79-7.44c0.7-1.12,1.54-2.53,2.67-3.65c0.98-1.26,1.82-2.53,2.95-3.65
		c0.84-1.12,1.68-1.96,2.53-2.81l3.93-4.07c0.7-0.7,1.68-1.54,1.4-2.24c-0.14-0.28-0.28-0.42-0.42-0.7
		c-0.56-0.56-0.98-0.56-1.54-0.56s-1.12,0.42-1.82,0.98c-0.98,0.84-4.63,3.51-13.19,13.33c-0.56,0.7-1.12,1.4-1.54,2.1
		c-1.82,1.4-4.49,3.51-7.58,5.33c-3.93,2.67-7.44,5.05-7.15,4.77c0.56-2.1,2.81-6.17,3.79-8l0.28-0.42
		c1.12-1.54,1.68-2.53,1.82-2.81c0.42-0.56,0.7-0.98,0.7-1.26c0-0.28,0-0.56-0.14-1.12c-0.28-0.56-0.7-1.12-1.12-1.68
		c-0.56-0.42-1.12-0.7-1.54-0.7c-0.42,0-0.98,0.28-1.4,0.84l-2.95,4.49c-1.82,1.26-4.91,3.65-8,5.75c-3.93,2.81-4.91,3.65-7.15,4.77
		c0,0-0.98,0.84,0.14-1.26c0.14-0.28,1.82-3.93,3.23-5.75c0.14-0.28,0.42-0.56,0.56-0.84c0.14-0.28,0.42-0.7,0.7-0.98
		c0.28-0.42,0.42-0.7,0.56-0.84c0.84-1.4,1.4-2.1,1.4-2.1c0.14-0.42,0.14-0.84,0-1.12c-0.14-0.56-0.7-1.12-1.54-1.68
		c-0.84-0.56-1.54-0.84-2.24-0.84c-0.56,0-0.98,0.28-1.4,0.98c-1.26,1.82-2.1,3.37-2.95,4.35c-0.7,0.98-1.54,2.1-2.67,3.37
		c-0.98,1.12-1.68,1.96-2.24,2.67c-0.56,0.56-1.4,1.4-2.81,2.67c-0.7,0.56-1.54,1.26-2.67,2.1c-0.98,0.84-1.82,1.4-2.67,1.68
		c-0.28,0.14-0.56,0.28-0.84,0.28c-0.28,0-0.56-0.14-0.56-0.42c-0.14-0.42,0.14-1.54,0.84-3.37c0.84-1.68,1.82-3.65,3.37-5.61
		c0.7-0.98,1.26-1.96,1.82-2.95c0.56-0.84,0.84-1.4,0.98-1.68s0.14-0.56,0.14-0.7s0-0.42-0.14-0.7c-0.28-0.7-0.7-1.26-1.4-1.68
		c-0.7-0.56-1.26-0.7-1.82-0.7s-1.12,0.28-1.68,0.98l-3.51,6.03c-1.12,1.54-1.96,3.23-2.81,4.77c-1.12-0.56-2.81-1.12-4.91-1.54
		c0-0.56,1.12-3.37-1.82-6.45c-4.91-5.05-13.61-4.21-13.61-4.21c15.71-7.15,5.61-15.85-3.93-16.13
		c-17.82-0.42-28.76,13.05-28.76,13.05c28.9-19.92,32.97-5.89,32.97-5.89c0.84,2.24-1.12,6.03-5.89,8c-2.1,0.84-2.95,0.98-4.91,1.54
		c-1.12,0.28-3.79,0.84-4.35,0.98c-2.67,0.42-4.35,0.7-5.19,0.84h-0.28l0.14-0.14c0.28-0.28,0.56-0.7,0.84-1.26
		c0.42-0.56,0.7-0.98,0.84-1.26c1.4-1.96,2.53-3.37,2.95-3.79c0.56-0.7,0.7-1.4,0.56-1.82c-0.14-0.56-0.98-1.26-2.67-1.96
		c-0.7-0.42-1.26-0.56-1.68-0.56c-0.56,0-1.12,0.42-1.82,1.12c-1.96,2.53-3.79,4.77-5.33,7.15c-1.4,2.24-2.95,4.63-4.21,6.87
		c-1.26,2.24-2.53,4.49-3.37,6.45l-0.14,0.28c-3.65,0.84-6.31,1.82-8.56,3.23c-2.24,1.4-3.23,3.23-2.24,5.19
		c0.56,1.4,1.54,3.09,3.09,4.63c1.4,1.54,3.09,2.95,4.63,3.93c2.1,1.12,4.21,1.82,6.31,1.82c5.89,0,13.19-1.26,21.6-4.07
		c4.21-1.26,7.72-2.67,10.52-3.93c2.81-1.26,5.33-2.81,7.58-4.49c1.54-1.12,2.95-2.53,4.21-3.93s1.96-2.67,2.1-3.51h0.28
		c1.68,0.28,3.23,0.56,4.07,0.84h0.14c-0.28,0.56-0.42,0.98-0.7,1.4c-0.7,1.68-1.12,2.95-1.26,3.65c-0.14,0.7-0.14,1.26,0.14,1.82
		c0.42,0.84,1.12,1.68,2.1,2.67c0.98,0.84,1.96,1.26,2.95,1.26c0.56,0,1.26-0.28,1.96-0.84c2.1-1.68,4.49-4.07,6.87-6.73l3.37-3.65
		c0.14-0.14,0.42-0.42,0.98-0.84c-0.98,2.1-1.82,4.21-2.24,5.89c-0.56,1.68-0.56,2.95-0.42,3.51c0,0,0.98,1.26,1.96,1.96
		c0.98,0.7,1.68,0.98,2.24,0.98c0.28,0,0.56-0.14,0.7-0.28s0.84-0.56,1.26-1.26c1.4-1.82,2.67-3.23,3.09-3.79
		c1.12-1.4,1.54-1.96,2.81-3.09c3.09-3.23,5.47-4.77,7.72-6.31c-1.12,1.96-1.82,3.51-2.53,4.63c-0.7,1.4-1.12,3.23-1.54,5.05
		c-0.14,0.98-0.14,1.68,0,2.1c0.28,0.56,0.84,1.12,1.96,1.82c0.98,0.56,1.68,0.98,2.24,0.98c0.28,0,0.56-0.14,0.7-0.28
		c0.14-0.14,0.7-0.56,1.26-1.26c1.4-1.82,2.67-3.23,3.09-3.79c1.12-1.4,1.54-1.96,2.81-3.23c2.95-3.09,5.19-4.63,7.44-6.03
		c-0.28,0.7-0.7,1.4-0.98,1.96c-1.26,2.53-2.1,4.91-2.81,7.44c-0.28,0.84-0.14,1.54,0,2.1c0.28,0.56,0.84,1.26,1.96,1.82
		c0.98,0.56,1.68,0.98,2.24,0.98c0.28,0,0.56-0.14,0.7-0.28c0.14-0.14,0.56-0.42,0.98-1.12c1.4-1.82,2.24-3.23,2.81-3.79
		c1.12-1.26,2.81-2.81,3.93-3.79c0.56-0.42,1.96-1.4,3.93-2.67c-1.82,2.38-2.53,4.63-1.68,6.45c0.56,1.26,1.26,2.53,2.53,3.51
		c1.12,0.98,2.24,1.54,3.23,1.54c0.56,0,0.98-0.14,1.54-0.42c0.56-0.28,1.4-0.84,2.67-1.68c3.65-2.67,7.15-6.17,11.08-10.66
		l0.28-0.28l-0.14,0.28c-1.4,2.53-2.24,5.05-2.95,7.86c-0.14,0.98-0.14,1.68,0,2.1c0.28,0.56,0.84,1.26,1.96,1.82
		c0.98,0.56,1.68,0.98,2.24,0.98c0.28,0,0.56-0.14,0.7-0.28s0.42-0.56,0.84-1.26c1.26-2.24,2.24-3.79,3.09-4.77
		c0.7-0.84,1.68-1.68,2.95-2.67c1.68-1.12,3.93-1.96,6.45-2.67c-0.98,2.24-1.26,4.49-0.56,6.03c0.56,1.26,1.4,3.09,3.93,4.21
		c1.68,0.7,5.05,0.7,7.86,0.14c4.07-0.84,6.31-2.95,8.14-4.35c1.82-1.4,5.47-4.77,6.73-5.89c1.12-0.84,2.81-2.81,4.49-4.07
		c-1.96,3.37-3.65,6.59-5.05,10.24c-0.28,0.84-0.42,1.54-0.14,2.1c0.28,0.56,0.84,1.12,1.68,1.82s1.68,0.98,2.24,0.98
		s1.12-0.56,1.82-1.82c1.96-4.07,4.49-7.29,7.15-9.96c1.82-1.68,4.21-3.23,6.87-4.49c-0.7,1.26-0.84,2.1-0.7,2.67
		c0.28,0.7,0.98,1.26,1.96,1.82c1.12,0.56,2.24,0.98,3.79,1.12c-0.28-0.28-0.42-0.7-0.56-0.98c-0.28-0.7-0.28-1.4,0-2.24
		s0.98-1.82,2.1-3.51l1.68-2.1C496.16,309.29,496.3,308.73,496.16,308.17z M455.76,311.53c2.1-0.98,3.79-1.54,5.05-1.54
		c0.42,0,0.7,0.14,0.84,0.42c0.14,0.42,0,1.26-0.7,2.53c-0.7,1.12-1.82,3.51-4.77,4.49c-2.67,0.84-6.17,0.42-7.15-0.42
		C450.29,315.46,453.65,312.65,455.76,311.53z M316.88,326.68c-3.93,1.4-8.42,2.81-13.19,3.79c-4.77,0.98-8.7,1.54-11.36,1.54
		c-4.21,0-6.45-0.84-7.01-2.53c-0.28-0.84-0.14-1.82,0.7-2.95c0.84-0.98,1.96-1.96,3.79-2.81v0.28c-0.28,1.4-0.28,2.95,0.28,4.07
		c0.42,0.98,0.98,1.82,1.96,2.53l0.42-0.7l4.07-7.58l0.14-0.28l0.14-0.28c3.09-1.12,6.31-1.96,10.24-2.95
		c3.79-0.84,7.86-1.4,11.92-1.82c4.21-0.42,8.56-0.7,12.77-0.7c0.84,0,1.54,0,1.96,0C330.35,320.51,324.73,323.88,316.88,326.68z
		 M334.83,314.62h-0.42c-2.67-0.14-5.19-0.28-8.14-0.28c-3.23,0-6.31,0.14-9.4,0.28c-3.09,0.14-6.03,0.42-8.84,0.84
		c-2.95,0.42-5.47,0.84-8,1.4l-0.42,0.14l-0.42,0.14l0.14-0.28l0.98-1.68c0.28-0.42,0.7-1.12,1.26-1.96l1.26-1.96l0.42-0.14
		l0.7-0.28c1.4-0.42,3.37-0.98,5.89-1.4c2.67-0.56,5.05-0.84,7.58-1.12c2.53-0.28,4.49-0.42,6.31-0.42c3.09,0,5.47,0.28,7.58,0.98
		c1.96,0.7,3.23,1.54,3.65,2.81C335.4,312.23,335.4,313.5,334.83,314.62z M427.84,311.25c-0.28,0.84-1.12,2.1-2.95,3.93
		c-2.81,2.81-5.89,4.91-9.54,6.45c-1.68,0.7-2.95,1.12-3.65,1.12c-0.42,0-0.7-0.14-0.7-0.42c0-0.14,0-0.42,0.14-0.84
		c0.7-1.54,1.96-3.23,3.93-4.91c1.82-1.68,3.93-3.09,6.17-4.21c0.84-0.42,1.82-0.84,3.23-1.26c1.26-0.42,2.1-0.56,2.67-0.56
		c0.42,0,0.56,0.14,0.7,0.28C427.98,310.97,427.98,311.11,427.84,311.25z"/>
	<path id="XMLID_43_" class="st0" d="M241.69,316.44c-0.56,0-1.68,0.14-3.23,0.42c-3.37,0.56-6.03,1.4-8.28,2.67
		c0.56-1.4,1.12-2.53,1.4-2.95l1.54-2.81c0.28-0.56,0.42-0.98,0.14-1.4c-0.14-0.28-0.42-0.7-1.12-0.98c0.7-0.98,0.84-1.82,0.56-2.67
		c-0.28-0.84-0.84-1.54-1.68-1.96c-0.84-0.56-1.82-0.84-2.95-0.84c-1.54,0-3.93,0.56-6.73,1.82c-2.95,1.12-5.47,2.67-7.86,4.35
		c-1.82,1.26-3.51,2.67-4.77,3.93c-3.09,3.23-6.31,5.89-10.38,7.01c-1.68,0.56-6.59,1.96-7.72-0.28c-0.42-0.84,0.14-1.96,0.98-3.93
		c3.09-6.59,9.82-8.56,10.38-8.84c0.14,0,0.56-0.14,0.7,0c0.28,0.28-1.54,2.53-1.12,3.37c1.12-1.54,2.53-2.81,3.93-3.65
		c0.84-0.56,1.26-1.12,0.98-1.68c-0.28-0.56-0.7-0.98-1.4-1.4c-0.7-0.42-1.4-0.56-2.24-0.56c-0.56,0-1.26,0.14-2.24,0.42
		c-1.4,0.42-2.81,0.98-3.93,1.54c-1.12,0.56-2.24,1.26-3.65,2.1c-0.7,0.42-1.26,0.98-1.82,1.4c-1.54,0.98-5.05,2.95-8.84,5.61
		c-3.93,2.81-4.91,3.65-7.15,4.77c0.98-2.53,2.81-6.17,3.79-8l0.28-0.42c1.12-1.54,1.68-2.53,1.82-2.81c0.42-0.56,0.7-0.98,0.7-1.26
		s0-0.56-0.14-1.12c-0.28-0.7-0.7-1.12-1.26-1.68c-0.56-0.42-1.12-0.7-1.54-0.7s-0.98,0.28-1.4,0.84l-3.79,6.03l-0.14,0.14
		c-1.68,3.09-2.95,5.19-3.65,6.59c-0.7,1.4-1.12,3.23-1.54,5.05c-0.14,0.98-0.14,1.68,0,2.1c0.28,0.56,0.84,1.12,1.96,1.82
		c0.98,0.56,1.68,0.98,2.24,0.98c0.28,0,0.56-0.14,0.7-0.28c0.14-0.14,0.7-0.56,1.26-1.26c1.4-1.82,2.67-3.23,3.09-3.79
		c1.12-1.4,1.54-1.96,2.81-3.09c2.81-2.81,4.91-4.49,6.87-5.75c-0.56,0.84-1.12,1.68-1.4,2.67c-0.7,1.82-0.84,3.65-0.28,5.05
		c0.56,1.4,1.54,3.65,3.93,4.77c3.51,1.54,6.17,0.84,6.73,0.7c2.67-0.42,5.33-1.54,8.7-4.91c0,0.42,0.14,0.7,0.28,0.98
		c0.42,1.12,1.26,2.24,2.67,3.37c1.26,0.98,2.24,1.54,3.37,1.54c0.7,0,1.82-0.56,3.37-1.68c3.23-2.53,6.45-5.75,10.24-9.82
		l0.84-0.84l-0.42,0.98c-0.98,2.53-1.68,4.35-2.1,5.61c-0.42,1.4-0.42,2.24-0.28,2.95c0.28,0.7,1.12,1.4,2.38,2.1
		c0.84,0.42,1.4,0.7,1.96,0.7c0.42,0,0.7-0.14,0.84-0.28s0.28-0.42,0.42-0.84c0.56-1.68,1.12-3.37,1.96-4.49
		c0.7-1.12,1.54-2.1,2.81-3.09c0.98-0.84,2.24-1.4,3.79-1.96c1.4-0.56,3.23-0.84,4.91-1.12c0.98-0.14,1.4-0.42,1.26-0.84
		C242.67,316.72,242.25,316.44,241.69,316.44z M227.38,312.09c-0.28,0.84-1.26,2.1-2.95,3.93c-2.81,2.81-5.89,4.91-9.54,6.31
		c-1.68,0.7-3.09,1.12-3.65,1.12c-0.42,0-0.7-0.14-0.7-0.42c-0.14-0.42,0.28-1.12,1.12-2.53c0.56-0.84,1.4-1.68,2.53-2.81
		c0.98-0.98,2.1-1.82,3.37-2.81c1.12-0.84,2.24-1.4,3.51-1.96c0.98-0.56,1.96-0.98,3.23-1.4c1.12-0.42,1.96-0.56,2.67-0.56
		c0.42,0,0.56,0.14,0.7,0.28C227.38,311.67,227.38,311.81,227.38,312.09z"/>
	<path id="XMLID_44_" class="st0" d="M252.07,301.01c0.42-0.7,0.7-1.26,0.7-1.96c0-0.56-0.14-0.98-0.56-1.4
		c-0.42-0.42-0.98-0.56-1.54-0.7c-0.98,0-2.1,0.42-3.51,1.26c-1.82,1.26-2.67,3.93-4.77,6.45c-1.82,2.1-4.07,3.23-4.07,3.79
		c0,0.42,0.28,0.7,0.7,0.7c0.7,0,2.1-0.56,4.49-1.82c2.24-1.26,4.21-2.38,5.75-3.79C250.66,302.41,251.51,301.57,252.07,301.01z"/>
	<path id="XMLID_58_" class="st0" d="M265.39,309.01c-0.42-0.28-0.84-0.42-1.4-0.42c-1.26,0-3.37,0.42-6.03,1.12
		c-1.96,0.56-3.93,1.26-5.89,2.1c-1.82,0.84-3.37,1.82-4.35,2.81c-0.7,0.7-0.98,1.4-0.7,2.1c0.28,0.84,0.98,1.4,2.1,1.82
		c0.7,0.28,2.67,0.42,5.33,0.42c1.96,0,3.51,0.14,4.63,0.28c-1.82,0.7-3.37,1.12-4.21,1.54c-2.95,1.12-5.61,2.38-8.14,3.65
		c-1.4,0.7-2.38,1.4-2.81,1.68c-0.42,0.42-0.42,0.84-0.28,1.26s0.56,0.98,1.4,1.4c0.56,0.42,1.12,0.56,1.4,0.56s0.56-0.14,0.84-0.42
		c1.26-0.98,3.93-2.24,7.58-4.35c3.23-1.54,4.91-2.53,7.86-3.65c0,0,2.24-0.7,0.7-2.24c-0.28-0.28-0.84-0.56-1.54-0.84
		c-0.7-0.14-1.96-0.28-3.79-0.42c-0.84,0-1.68-0.14-2.81-0.28c-0.98-0.14-1.68-0.28-1.96-0.42c-0.28-0.14-0.56-0.28-0.7-0.56
		c-0.14-0.28,0-0.42,0.42-0.7c1.54-1.26,3.79-2.24,6.45-2.81l4.35-0.84c1.68-0.28,1.96-0.7,2.24-0.98c0.14-0.28,0.28-0.42,0-0.98
		C266.24,309.71,265.81,309.29,265.39,309.01z"/>
	<path id="XMLID_59_" class="st0" d="M391.09,301.85c0.56,0.42,0.98,0.56,1.54,0.56c0.28,0,0.7-0.14,1.12-0.42
		c0.42-0.28,0.98-0.7,1.82-1.4c0.7-0.56,1.12-0.98,1.54-1.26c0.7-0.56,0.98-1.12,0.7-1.54c-0.28-0.56-0.7-1.12-1.4-1.54
		c-0.7-0.42-1.26-0.7-1.96-0.7s-1.68,0.7-3.09,2.24c-1.12,1.4-1.54,2.38-1.26,3.23C390.25,301.15,390.67,301.57,391.09,301.85z"/>
	<path id="XMLID_60_" class="st0" d="M184.31,302.55c0.56,0.28,0.98,0.56,1.4,0.56c0.28,0,0.7-0.14,1.12-0.42
		c0.42-0.28,0.98-0.7,1.82-1.4c0.7-0.56,1.12-0.98,1.54-1.26c0.7-0.56,0.98-1.12,0.7-1.54c-0.28-0.56-0.7-1.12-1.4-1.54
		c-0.7-0.42-1.26-0.7-1.96-0.7c-0.7,0-1.68,0.7-3.09,2.24c-1.12,1.4-1.54,2.38-1.26,3.23C183.47,301.85,183.75,302.13,184.31,302.55
		z"/>
</g>
</svg>
