<?xml version="1.0" encoding="utf-8"?>
<!-- Generator: Adobe Illustrator 19.0.0, SVG Export Plug-In . SVG Version: 6.00 Build 0)  -->
<svg version="1.1" id="Layer_1" xmlns="http://www.w3.org/2000/svg" xmlns:xlink="http://www.w3.org/1999/xlink" x="0px" y="0px"
	 viewBox="0 0 500 500" style="enable-background:new 0 0 500 500;" xml:space="preserve">
<style type="text/css">
	.st0{fill:#025EAC;}
</style>
<g>
	<path class="st0" d="M67.5,231.2h14.8c0,10.1,0,20.3,0,30.4c8.8,0,17.6,0,26.3,0c0,2.4,0,4.8,0,7.2H67.5V231.2z"/>
	<path class="st0" d="M118.1,231.2h41.3c0,2.4,0,4.9,0,7.3c-8.8,0-17.6,0-26.5,0c0,2.6,0,5.3,0,7.9c8.8,0,17.6,0,26.5,0
		c0,2.4,0,4.9,0,7.3c-8.8,0-17.6,0-26.5,0c0,2.6,0,5.3,0,7.9c8.8,0,17.6,0,26.5,0c0,2.4,0,4.8,0,7.2h-41.3
		C118.1,256.3,118.1,243.7,118.1,231.2z"/>
	<path class="st0" d="M171,231.2h16.8c8.9,8.3,17.7,16.6,26.5,24.9c0.1-2,0.2-4,0.1-6c0-6.3,0-12.6,0-18.8H228c0,12.6,0,25.1,0,37.7
		h-17.5c-8.7-8.3-17.3-16.7-26-25c0,8.3,0,16.7,0,25H171C171,256.3,171,243.7,171,231.2z"/>
	<path class="st0" d="M239.8,231.2h16.8c8.8,8.3,17.7,16.6,26.5,24.9c0.2-3.6,0.1-7.3,0.1-11c0-4.6,0-9.3,0-13.9h13.6
		c0,12.6,0,25.1,0,37.7h-17.5c-8.7-8.3-17.4-16.7-26-25c0,8.3,0,16.7,0,25h-13.5C239.8,256.3,239.8,243.7,239.8,231.2z"/>
	<path class="st0" d="M326.3,231.2h16.1c6.9,12.6,13.8,25.1,20.8,37.7H348c-1.3-2.5-2.6-5-3.9-7.5c-5.6,0-11.1,0-16.7,0
		c1.3-2.5,2.6-4.9,3.9-7.4c3,0,6,0,9,0c-2-3.8-3.9-7.6-5.9-11.4c-4.6,8.8-9.1,17.6-13.7,26.3h-15.1
		C312.4,256.3,319.3,243.7,326.3,231.2z"/>
	<path class="st0" d="M371.7,231.2h31.4c3.3,0.1,6.6,0.2,9.7,1.1c2.1,0.6,4.1,1.3,5.9,2.5c1.1,0.8,2.2,1.7,2.9,2.9
		c0.9,1.5,1.1,3.3,0.9,5c-0.2,2.2-1.3,4.3-2.9,5.8c-2.4,2.1-5.3,3.3-8.3,4.3c5,5.4,10.1,10.7,15.2,16.1h-18.1
		c-6.5-6.9-12.9-13.8-19.4-20.6c3.7,0,7.5,0.1,11.2-0.2c1.6-0.1,3.2-0.5,4.6-1.3c1-0.6,1.9-1.3,2.2-2.4c0.3-1.2,0.3-2.5-0.4-3.6
		c-0.6-0.9-1.6-1.4-2.6-1.8c-1.8-0.6-3.7-0.7-5.6-0.7c-4-0.1-8,0-12,0c0,10.2,0,20.5,0,30.7h-14.8
		C371.7,256.3,371.7,243.7,371.7,231.2z"/>
	<path class="st0" d="M428,231.2h1.1c1.8,0.2,3.3,1.9,3.4,3.7c0.2,1.8-1.1,3.5-2.8,4c-1,0.3-2.1,0.2-3-0.2c-1.1-0.5-1.9-1.6-2.1-2.8
		c-0.1-0.8-0.1-1.7,0.3-2.4C425.4,232.2,426.7,231.3,428,231.2z M427.5,232c-1.3,0.4-2.3,1.7-2.2,3.1c0,1.3,0.9,2.6,2.2,3.1
		c1.1,0.4,2.4,0.1,3.3-0.7c0.9-0.8,1.3-2.2,0.9-3.4C431.1,232.5,429.2,231.4,427.5,232z"/>
	<path class="st0" d="M426.8,237.3c0-1.5,0-2.9,0-4.4c0.9,0.1,1.9-0.1,2.8,0.1c0.7,0.2,1,1.2,0.6,1.8l-0.7,0.5c1,0.2,0.8,1.3,0.9,2
		c-0.4,0-0.8,0-1.1,0c-0.1-0.4,0-0.8-0.2-1.2c-0.2-0.4-0.7-0.3-1.1-0.3c0,0.5,0,1,0,1.5C427.6,237.3,427.2,237.3,426.8,237.3z
		 M428,233.7c0,0.4,0,0.8,0,1.2l1-0.2l0.1-0.8C428.8,233.7,428.4,233.7,428,233.7z"/>
</g>
</svg>
