<?xml version="1.0" encoding="UTF-8" standalone="no"?>
<!-- Created with Inkscape (http://www.inkscape.org/) -->

<svg
   version="1.1"
   id="svg236"
   width="322"
   height="156"
   viewBox="0 0 322 156"
   sodipodi:docname="main_logo.svg"
   inkscape:version="1.1.2 (b8e25be833, 2022-02-05)"
   inkscape:export-filename="C:\Users\jonar\Coding\Feb2022\alpha\logos\main_logo.png"
   inkscape:export-xdpi="1000"
   inkscape:export-ydpi="1000"
   xmlns:inkscape="http://www.inkscape.org/namespaces/inkscape"
   xmlns:sodipodi="http://sodipodi.sourceforge.net/DTD/sodipodi-0.dtd"
   xmlns="http://www.w3.org/2000/svg"
   xmlns:svg="http://www.w3.org/2000/svg">
  <defs
     id="defs240" />
  <sodipodi:namedview
     id="namedview238"
     pagecolor="#ffffff"
     bordercolor="#666666"
     borderopacity="1.0"
     inkscape:pageshadow="2"
     inkscape:pageopacity="0.0"
     inkscape:pagecheckerboard="0"
     showgrid="false"
     inkscape:zoom="2.4052622"
     inkscape:cx="160.89722"
     inkscape:cy="107.26481"
     inkscape:window-width="1920"
     inkscape:window-height="1017"
     inkscape:window-x="-1928"
     inkscape:window-y="-80"
     inkscape:window-maximized="1"
     inkscape:current-layer="g242" />
  <g
     inkscape:groupmode="layer"
     inkscape:label="Image"
     id="g242">
    <path
       style="fill:none;stroke:#000000;stroke-width:0.999996;stroke-linecap:round;stroke-linejoin:round;stroke-miterlimit:4;stroke-dasharray:none;stroke-opacity:1"
       d="m 14.012696,27.425531 -2.412,98.287999 83.213138,-6.63293 22.913746,-4.22096 21.70779,-9.0449 15.67786,-13.868858 7.23592,-9.647909 6.6329,-4.220955 6.02997,1.20599 7.2359,5.426944 7.23592,2.41197 13.86887,0.603 19.89879,-2.41198 9.64792,-1.20599 5.42695,-2.411972 6.02993,-3.014969 2.41195,-3.01497 7.83892,4.22096 34.97366,13.868851 10.25089,-13.265858 1.80898,-33.164665 -1.20599,-7.838918 -1.206,-3.014973 -6.02993,-5.426941 z"
       id="path2521"
       sodipodi:nodetypes="ccccccccccccccccccccccccc"
       inkscape:export-filename="C:\Users\jonar\Coding\Feb2022\alpha\logos\path2521.png"
       inkscape:export-xdpi="96"
       inkscape:export-ydpi="96" />
    <path
       style="fill:#b3b3b3;stroke:#000000;stroke-width:0.176776;stroke-linecap:round;stroke-linejoin:round;stroke-miterlimit:4;stroke-dasharray:none;stroke-opacity:1"
       d="m 12.786656,110.25579 c 0.2516,-8.12187 0.81556,-29.881388 1.25299,-48.35448 0.43749,-18.473088 0.83581,-33.613031 0.88516,-33.64431 0.0492,-0.03111 31.75035,0.368314 70.44663,0.887995 38.696234,0.519681 101.113054,1.340765 138.704024,1.824633 l 68.34716,0.879764 2.71675,2.185557 c 3.27639,2.635749 4.22834,4.437616 5.0235,9.508365 0.65532,4.178794 -0.76912,35.376188 -1.68539,36.912756 -1.4446,2.422627 -9.05652,11.850712 -9.56789,11.850712 -1.25199,0 -33.03634,-12.940967 -37.60636,-15.311396 l -4.83374,-2.507229 -1.0532,1.50366 c -0.57927,0.827012 -3.61426,2.791318 -6.74441,4.365129 -5.41801,2.724132 -6.35441,2.943824 -19.50964,4.577236 -24.10634,2.99316 -31.4381,2.28448 -40.23835,-3.889423 -2.74319,-1.924505 -5.17982,-3.02318 -7.34905,-3.313678 -2.86595,-0.38379 -3.6537,-0.164297 -6.74013,1.878068 -1.92328,1.272666 -5.06058,4.433623 -6.97649,7.029103 -1.91492,2.59406 -6.99585,7.81504 -11.29104,11.60222 -7.57753,6.681268 -8.12677,7.018208 -18.49588,11.346218 -15.72214,6.56233 -24.91666,8.06499 -71.691144,11.71646 -20.02872,1.56355 -38.1338,3.04012 -40.23347,3.28125 l -3.81767,0.43844 z"
       id="path18179"
       inkscape:export-filename="C:\Users\jonar\Coding\Feb2022\alpha\logos\path2521.png"
       inkscape:export-xdpi="96"
       inkscape:export-ydpi="96" />
    <text
       xml:space="preserve"
       style="font-size:15.9999px;line-height:1.25;font-family:sans-serif;stroke-width:3.99998"
       x="43.266018"
       y="53.222054"
       id="text8383"
       inkscape:transform-center-x="43.840671"
       inkscape:transform-center-y="5.6568404"
       inkscape:export-filename="C:\Users\jonar\Coding\Feb2022\alpha\logos\path2521.png"
       inkscape:export-xdpi="96"
       inkscape:export-ydpi="96"><tspan
         sodipodi:role="line"
         id="tspan8381"
         x="43.266018"
         y="53.222054"
         style="stroke-width:3.99998">JP LATH &amp; PLASTERING INC.</tspan></text>
  </g>
</svg>
