<svg id="Layer_1" data-name="Layer 1" xmlns="http://www.w3.org/2000/svg" viewBox="0 0 751.07 139.95"><defs><style>.cls-1{fill:#231f20;}.cls-2{fill:#d31245;}</style></defs><title>TM-Logo-Color-NoTag</title><path class="cls-1" d="M325.57,81.15l8.75-3.66V89.37h13.22v6.07H334.32v25.8c0,4.84,1.34,7.43,6.78,7.43a53.78,53.78,0,0,0,6.7-.54v6.08a72,72,0,0,1-8.39.53c-8.84,0-13.84-2.88-13.84-12.87V95.44h-11.7V89.37h11.7Z" transform="translate(-45.61 -69.72)"/><path class="cls-1" d="M364.27,101.08c1.07-10.64,12.58-13.41,22.32-13.41,12.41,0,21.51,4.75,21.51,15.91v22a78.3,78.3,0,0,0,.37,8.58h-8.22a50.47,50.47,0,0,1-.35-6.27h-.18c-5.08,6.7-10.81,7.95-19.56,7.95-11.33,0-19.11-6.25-19.11-14.65,0-9.46,7.15-14.37,23-14.81,6.61-.17,11.16-.17,15.28-.17V105c0-8.57-5.37-11.25-14-11.25-6.16,0-11.33,2.41-11.79,7.33Zm35.1,11.25c-3,0-7.24,0-13.94.26-9.1.36-15.09,1.88-15.09,8.4,0,4.45,3.67,8.84,12.15,8.84,10.8,0,16.88-4.65,16.88-15.46Z" transform="translate(-45.61 -69.72)"/><path class="cls-1" d="M475.75,89.37l-32.41,62h-9.82l9.29-17.14L418.08,89.37h10.34l19.11,36.43,18.94-36.43Z" transform="translate(-45.61 -69.72)"/><path class="cls-1" d="M486.75,69.72h8.74v64.49h-8.74Z" transform="translate(-45.61 -69.72)"/><path class="cls-1" d="M539.21,135.89c-18.22,0-28-8.74-28-24.11,0-14.54,9.28-24.11,28-24.11,18.22,0,28,8.76,28,24.11S557.43,135.89,539.21,135.89Zm-18.76-24.11c0,10.19,6.53,18.05,18.76,18.05S558,122,558,111.78s-6.51-18-18.74-18S520.45,101.59,520.45,111.78Z" transform="translate(-45.61 -69.72)"/><path class="cls-1" d="M582.15,99.56c0-3.4-.18-6.62-.35-10.19H590c.19,2.69.36,5.9.36,8.94h.18c4-7.25,8-9.56,18-9.56h2.95V96.6a12.7,12.7,0,0,0-4.19-.54c-10.53,0-16.34,7.44-16.34,16.44v21.71h-8.75Z" transform="translate(-45.61 -69.72)"/><path class="cls-1" d="M317.42,173.33c0-3.39-.17-6.62-.35-10.19h8.22c.17,2.25.36,4.82.36,8h.17c5.09-6.87,11.53-9.65,18.84-9.65,7.51,0,13.75,3.65,16.34,11.25a21.19,21.19,0,0,1,18.49-11.25c12.77,0,20.62,6.24,20.62,20.79V208h-8.75V185.55c0-10.88-3.12-18-12.67-18-7.68,0-15.54,5.27-15.54,20V208h-8.76V185c0-12.05-4.1-17.5-12.15-17.5-7.67,0-16.06,5.54-16.06,18.75V208h-8.76Z" transform="translate(-45.61 -69.72)"/><path class="cls-1" d="M444.17,209.67c-18.22,0-28.05-8.76-28.05-24.12,0-14.55,9.3-24.1,28.05-24.1,18.21,0,28,8.76,28,24.1S462.38,209.67,444.17,209.67Zm-18.75-24.12c0,10.2,6.51,18,18.75,18s18.75-7.85,18.75-18-6.53-18-18.75-18S425.42,175.39,425.42,185.55Z" transform="translate(-45.61 -69.72)"/><path class="cls-1" d="M489.09,173.33c0-3.39-.18-6.62-.35-10.19H497c.19,2.69.36,5.9.36,8.94h.18c4-7.24,8-9.56,18-9.56h2.95v7.86a12.75,12.75,0,0,0-4.19-.53c-10.54,0-16.35,7.4-16.35,16.42V208h-8.76Z" transform="translate(-45.61 -69.72)"/><path class="cls-1" d="M532.49,173.33c0-3.39-.16-6.62-.34-10.19h8.22c.16,2.69.34,5.9.34,8.94h.19c4-7.24,8-9.56,18-9.56h2.93v7.86a12.7,12.7,0,0,0-4.2-.53c-10.52,0-16.34,7.4-16.34,16.42V208h-8.75Z" transform="translate(-45.61 -69.72)"/><path class="cls-1" d="M575.41,143.5h8.75v8.93h-8.75Zm0,19.64h8.75V208h-8.75Z" transform="translate(-45.61 -69.72)"/><path class="cls-1" d="M608.07,195.21c.81,6.25,6.51,8.39,14.47,8.39,9.82,0,14.64-3,14.64-7.77,0-10.45-36.25-2.52-36.25-20.35,0-9.92,9.37-14,21.78-14,9.32,0,21.26,2.33,21.79,13.31H636c-1.25-5.63-6.25-7.24-12.95-7.24-7.85,0-13.4,2.69-13.4,6.8,0,3.11,2.86,5.07,9.56,6.33l14.83,2.76c8.38,1.61,12.41,5.09,12.41,11.8,0,9.54-8,14.46-24.91,14.46-12,0-22.16-4-22.77-14.46Z" transform="translate(-45.61 -69.72)"/><path class="cls-1" d="M685,209.67c-18.22,0-28-8.76-28-24.12,0-14.55,9.29-24.1,28-24.1,18.22,0,28,8.76,28,24.1S703.22,209.67,685,209.67Zm-18.75-24.12c0,10.2,6.52,18,18.75,18s18.75-7.85,18.75-18-6.53-18-18.75-18S666.25,175.39,666.25,185.55Z" transform="translate(-45.61 -69.72)"/><path class="cls-1" d="M727,173.33c0-3.39-.16-6.62-.33-10.19h8.2c.18,2.25.36,4.82.36,8h.19c5.08-6.87,11.5-9.65,19.53-9.65,12.6,0,21.72,7.05,21.72,21.08V208H767.9V183c0-10-6-15.44-14.38-15.44s-17.76,5.09-17.76,19.29V208H727Z" transform="translate(-45.61 -69.72)"/><path class="cls-2" d="M155.31,96.36c3.6,1,7.82-2.19,9.43-7s0-9.55-3.63-10.49-7.8,2.2-9.41,7S151.7,95.41,155.31,96.36Z" transform="translate(-45.61 -69.72)"/><path class="cls-2" d="M266.92,96.36c3.6,1,7.8-2.19,9.42-7s0-9.55-3.62-10.49-7.83,2.2-9.41,7S263.33,95.41,266.92,96.36Z" transform="translate(-45.61 -69.72)"/><path class="cls-2" d="M211.11,96.36c3.61,1,7.82-2.19,9.43-7s0-9.55-3.61-10.49-7.83,2.2-9.43,7S207.5,95.41,211.11,96.36Z" transform="translate(-45.61 -69.72)"/><path class="cls-2" d="M266.93,101c-6.13-2.56-9.92-1-14.49,3L238,117.22c-3.83,3.38-8.86,7.76-14.25,12.34h0c.42-6.25,1.07-22.88-12.59-28.59-6.16-2.56-9.93-1-14.5,3l-14.46,13.26c-3.65,3.23-14.18,12.27-14.25,12.34.42-6.26,1.06-22.88-12.6-28.59-6.14-2.56-9.92-1-14.49,3l-14.46,13.26c-3.66,3.24-14.25,12.34-14.25,12.34h0c.42-6.25,1.06-22.88-12.61-28.59-6.13-2.56-9.92-1-14.48,3L70.55,117.22c-3.22,2.85-7.34,6.44-11.78,10.24l-7.43,6.61a.66.66,0,0,0,.4,1.19H65.28a2.23,2.23,0,0,1,1,2s.2,1.19-1.15,3.69l0,0c-.67,1.38-1.56,3.22-2,4.25h0c-.86,1.85-2.09,4.52-3.43,7.65l-.1.25a151.93,151.93,0,0,0-6.95,19.14s-6.94,24.77-7,34.26c0,0-.19,2.56,1.45,2.65,1.89.27,2.47-1.94,2.47-1.94a103.27,103.27,0,0,1,10.33-22.69S70.3,167.23,77.3,160.36l2.75,11.25a23.68,23.68,0,0,1-.1,12,151,151,0,0,1-7,22,1.7,1.7,0,0,0,.82,2.41c.52.25,1.75.46,3.44-1.91,0,0,8.67-11.19,14.6-20.71,0,0,5.7-8.05,5.42-14.88,0,0-.21-7-1.64-17.23a27.07,27.07,0,0,1-.28-3.91h0c0-.72.06-1.48.06-2.28,0-7.8,5.47-11.2,16.78-12.18h0q2.88-.26,6.28-.3c.63,0,3.74-.37,3.75,2.5A7.66,7.66,0,0,1,121,141v0c-.69,1.38-1.57,3.22-2,4.25h0c-.86,1.85-2.09,4.52-3.44,7.65l0,0a160.24,160.24,0,0,0-7,19.36s-6.93,24.77-7,34.26c0,0-.17,2.56,1.46,2.65,1.89.27,2.48-1.94,2.48-1.94a118.87,118.87,0,0,1,10.87-23.35s10.07-17.27,16.88-23.56l2.76,11.25a23.8,23.8,0,0,1-.1,12,151.75,151.75,0,0,1-7,22,1.7,1.7,0,0,0,.81,2.41c.52.25,1.75.46,3.44-1.91,0,0,8.67-11.19,14.6-20.71,0,0,5.7-8.05,5.42-14.88,0,0-.21-7-1.64-17.23a26.16,26.16,0,0,1-.29-3.91s0-1.49.06-2.28c.61-7.78,5.48-11.2,16.79-12.18,1.92-.17,4-.27,6.27-.3.64,0,3.74-.37,3.76,2.5,0,0,.15,1.32-1.21,3.82v0c-.67,1.38-1.55,3.22-2,4.25h0c-.87,1.85-2.1,4.52-3.44,7.65l0,0a158.56,158.56,0,0,0-7,19.36s-6.93,24.77-7,34.26c0,0-.17,2.56,1.45,2.65,1.9.27,2.49-1.94,2.49-1.94a118.81,118.81,0,0,1,10.87-23.46s9.84-16.54,16.88-23.45l2.76,11.25a23.72,23.72,0,0,1-.11,12,153.15,153.15,0,0,1-7,22,1.7,1.7,0,0,0,.82,2.41c.5.25,1.74.46,3.43-1.91,0,0,8.66-11.19,14.61-20.71,0,0,5.69-8.05,5.42-14.88,0,0-.21-7-1.65-17.23a27.07,27.07,0,0,1-.28-3.91h0a22.2,22.2,0,0,1,.06-2.28c0-7.8,5.48-11.2,16.78-12.18,1.93-.17,4-.27,6.29-.31.62,0,3.72-.37,3.74,2.51,0,0,.2,1.2-1.14,3.69v0c-.68,1.38-1.58,3.22-2.05,4.24h0c-2.45,5.24-7.82,17.2-10.52,27.17,0,0-6.93,24.77-7,34.26,0,0-.18,2.56,1.45,2.65,1.89.27,2.48-1.94,2.48-1.94a116.72,116.72,0,0,1,10.83-23.35s8.71-14.8,16.93-23.56l2.75,11.25a23.75,23.75,0,0,1-.09,12,152.4,152.4,0,0,1-7,22,1.7,1.7,0,0,0,.82,2.41c.51.25,1.74.46,3.43-1.91,0,0,8.67-11.19,14.61-20.71,0,0,5.69-8.05,5.42-14.88,0,0-.22-7-1.64-17.23a26.07,26.07,0,0,1-.22-5.64c.23-6.09,3.73-8.24,6.23-9a8.86,8.86,0,0,1,1.28-.3l2.34-.35a30,30,0,0,0,3-.77,4.18,4.18,0,0,0,1.42-.94,9.18,9.18,0,0,0,2.43-5.83l0-.31C279.89,124.53,281.08,106.89,266.93,101Z" transform="translate(-45.61 -69.72)"/><path class="cls-2" d="M99.48,96.36c3.59,1,7.82-2.19,9.43-7s0-9.55-3.62-10.49-7.82,2.2-9.42,7S95.87,95.41,99.48,96.36Z" transform="translate(-45.61 -69.72)"/><path class="cls-1" d="M796.68,201a5.95,5.95,0,1,1-5.94-5.95A6,6,0,0,1,796.68,201Zm-11.18,0a5.24,5.24,0,1,0,5.24-5.25A5.25,5.25,0,0,0,785.5,201Zm3.07-3.26h2.26c.48,0,2.17,0,2.17,1.61a1.51,1.51,0,0,1-1.19,1.53c.66.18.87.46,1,1.24a9.18,9.18,0,0,0,.38,2h-.92a8,8,0,0,1-.3-1.67c-.11-1-.36-1.24-1.39-1.24h-1.1v2.91h-.88Zm.88,2.74h1.38c.44,0,1.25,0,1.25-1s-.77-1-1.25-1h-1.38Z" transform="translate(-45.61 -69.72)"/></svg>